<?xml version="1.0" encoding="UTF-8" standalone="no"?>
<!-- Created with Inkscape (http://www.inkscape.org/) -->

<svg
   version="1.1"
   id="svg1"
   width="249.6382"
   height="168.67169"
   viewBox="0 0 994.00001 671.61061"
   xmlns="http://www.w3.org/2000/svg"
   xmlns:svg="http://www.w3.org/2000/svg">
  <defs
     id="defs1" />
  <path
     style="fill:currentColor;fill-opacity:1"
     d="M 214.0001,670.70973 C 159.21902,665.18338 109.05629,635.05278 78.520552,589.33297 55.91509,555.48696 45.96313,520.14586 47.27293,478.36774 c 0.5999,-19.13475 2.66067,-31.14032 8.41686,-49.03477 20.632042,-64.13908 76.26281,-113.21612 142.31031,-125.54501 16.42173,-3.06539 43.61424,-3.76465 59,-1.51719 35.25847,5.15035 64.70948,17.82241 91.86006,39.52521 9.78776,7.82383 29.50375,27.56244 28.94542,28.97861 -0.2756,0.699 -66.33272,61.90439 -69.8791,64.74665 -1.22544,0.98213 -3.39205,-0.66581 -12.4899,-9.5 -7.92681,-7.69709 -13.37616,-12.02299 -19.47192,-15.45755 -42.31628,-23.84254 -95.0089,-9.48551 -119.24461,32.49031 -12.45083,21.56461 -14.8267,46.74132 -6.69994,70.99808 4.50065,13.43356 14.84646,29.45409 23.54123,36.45369 l 3.51189,2.8272 -8.78656,10.69502 c -4.83262,5.88226 -9.09842,10.71976 -9.47957,10.75 -1.58664,0.12588 -13.2889,-11.78046 -18.99177,-19.32297 -7.74277,-10.24044 -16.07465,-27.41865 -19.51454,-40.234 -2.4253,-9.03551 -2.66046,-11.56933 -2.72742,-29.38805 -0.0689,-18.34147 0.091,-20.09412 2.69138,-29.5 1.52055,-5.5 5.21812,-14.95 8.21681,-21 24.84982,-50.1357 80.6187,-75.38231 134.51844,-60.89665 11.667,3.13553 29.29927,11.59931 37.98335,18.23264 l 6.48334,4.95231 12.84289,-12.14415 c 7.06359,-6.67928 13.93904,-12.97315 15.27875,-13.98637 l 2.43586,-1.84222 -6.26209,-5.024 C 292.41325,333.05541 242.21143,321.99969 193.72755,334.22583 108.01975,355.8387 56.9748,444.60486 81.529252,529.33682 c 8.04903,27.7755 21.830708,50.23445 43.416398,70.75238 27.95358,26.57083 62.61893,41.05681 101.55445,42.43765 30.44718,1.07981 57.50043,-5.4672 83.6563,-20.24517 9.88685,-5.58602 25.03487,-16.75601 30.28069,-22.32864 1.6154,-1.71604 3.42429,-3.12007 4.01975,-3.12007 1.15564,0 19.54316,18.07611 19.54316,19.21218 0,0.37102 -2.43248,2.97513 -5.40552,5.78691 -37.93225,35.87474 -92.07296,54.17607 -144.59438,48.87767 z m 200.73438,-50.96481 c -8.62701,-2.0325 -16.48778,-8.34235 -20.57348,-16.51435 -3.85069,-7.70196 -4.29256,-14.66492 -3.95973,-62.3976 0.31018,-44.48282 0.36753,-45.62473 2.566,-51.07935 6.30309,-15.63865 21.84698,-23.19048 41.0619,-19.94946 13.04134,2.1997 22.00335,9.99102 25.66152,22.30936 2.29391,7.72448 2.22992,97.92989 -0.075,105.69136 -3.26852,11.00634 -9.8275,17.81986 -20.27104,21.05772 -6.74098,2.08993 -17.61598,2.48302 -24.41019,0.88232 z m 17.12049,-22.33695 c 5.08673,-2.63045 5.14504,-3.2322 5.14504,-53.10628 v -46.43717 l -2.78245,-3.11409 c -5.80748,-6.49971 -16.90419,-4.30911 -19.15062,3.78052 -0.6658,2.39762 -1.05785,19.7897 -1.06136,47.08414 -0.006,46.45285 0.15906,48.1185 5.11129,51.58719 2.87057,2.01061 9.05466,2.11047 12.7381,0.20569 z m 315.76903,21.8515 c -9.79333,-3.13423 -14.98965,-7.68848 -19.31621,-16.92945 l -2.80778,-5.99705 v -51.5 -51.5 l 2.64796,-5.64796 c 5.88624,-12.55505 15.57806,-18.10981 31.85204,-18.25567 11.45619,-0.10268 18.12043,1.99702 24.68873,7.77867 5.28678,4.65361 8.74642,11.11774 10.22181,19.09883 1.50375,8.13457 1.47429,90.61399 -0.0349,97.72691 -2.39868,11.30504 -8.34544,19.1775 -17.81811,23.58803 -6.97809,3.24904 -21.81856,4.07477 -29.43352,1.63769 z m 19.25914,-22.05719 c 4.96029,-3.47433 5.11687,-5.07685 5.11687,-52.36931 0,-35.82045 -0.26589,-44.7006 -1.42122,-47.4657 -3.01662,-7.21979 -13.41026,-8.64412 -18.82878,-2.58027 l -2.75,3.07752 0.0354,46.73423 c 0.0379,50.01051 0.0416,50.04913 5.07463,52.83871 3.31965,1.83994 9.98564,1.7172 12.77306,-0.23518 z M 476.00001,544.83297 v -74 l 14.75,0.007 14.75,0.007 11.5,42.743 11.5,42.743 0.26073,-42.75 0.26074,-42.75 h 10.48926 10.48927 v 74 74 h -12.31573 -12.31571 l -13.93429,-51.69167 -13.93427,-51.69166 -0.259,51.69166 -0.25901,51.69167 h -10.49099 -10.491 z m 108,11.03078 v -62.96922 l -12.25,-0.28078 -12.25,-0.28078 v -10.5 -10.5 l 36.25,-0.26247 36.25,-0.26248 v 11.01248 11.01247 h -12 -12 v 63 63 h -12 -12 z m 58,-11.03078 v -74 h 21.2899 c 31.37494,0 37.99176,2.27903 44.6843,15.3906 3.36453,6.59156 3.48663,7.23149 3.86767,20.2711 0.6015,20.58366 -1.88158,29.9005 -9.72365,36.48432 l -3.91145,3.28385 4.25726,3.74739 c 7.92754,6.97809 8.83685,10.66401 9.57759,38.82274 0.37902,14.40832 1.11085,25.63274 1.77669,27.25 l 1.13219,2.75 h -12.3924 -12.39238 l -1.08287,-5.04922 c -0.59556,-2.77707 -1.10825,-13.68957 -1.1393,-24.25 -0.0358,-12.16281 -0.49394,-20.44936 -1.25,-22.60712 -1.82588,-5.21092 -5.38661,-7.26719 -13.60211,-7.855 L 666,558.56424 v 30.13436 30.13437 h -12 -12 z m 40,-9.27865 c 5.01856,-2.50762 6.12706,-6.76542 5.78519,-22.22135 -0.41674,-18.84092 -1.61712,-20.5 -14.83224,-20.5 h -6.95295 v 22 22 l 6.75,-0.0147 c 3.7125,-0.008 7.875,-0.57687 9.25,-1.26391 z m 128,9.27865 v -74 h 12 12 v 63.5 63.5 h 19 19 v 10.5 10.5 h -31 -31 z m -432.1531,-106.25 c 5.45129,-10.5875 18.76799,-36.6875 29.59268,-58 l 19.68125,-38.75 h 7.35537 7.35537 l 29.08421,57.48751 c 15.99631,31.61813 29.08421,57.71813 29.08421,58 0,0.28187 -3.49948,0.51249 -7.77663,0.51249 h -7.77664 l -7.44673,-15 -7.44673,-15 h -35.27038 -35.27037 l -7.51252,15 -7.51252,15 h -8.02599 -8.026 z m 85.1531,-23.39815 c 0,-1.73736 -28.48793,-56.25138 -29.05646,-55.60193 -0.36113,0.41254 -6.99023,13.23758 -14.73132,28.50008 l -14.07474,27.75 h 28.93127 c 15.91219,0 28.93125,-0.29167 28.93125,-0.64815 z m 53,-14.85185 v -57.5 h 7.39404 7.39405 l 26.29083,33.41106 26.29083,33.41106 9.06513,-11.55323 c 4.98581,-6.35428 16.73583,-21.27676 26.11114,-33.16106 l 17.04602,-21.60783 7.70398,-0.29206 7.70398,-0.29207 v 57.54207 57.54206 h -6.99021 -6.99021 l -0.25979,-47.23128 -0.25979,-47.23127 -24.41444,30.73127 -24.41445,30.73128 h -4.36205 -4.36206 l -24.2235,-30.43753 -24.2235,-30.43752 -0.25979,46.93752 -0.2598,46.93753 h -6.9902 -6.99021 z m 163.24188,-0.25 0.25812,-57.75 33,0.0653 c 36.7794,0.0728 41.25403,0.65855 51.34874,6.72196 10.39232,6.24217 15.29815,15.27067 15.95473,29.36247 0.35063,7.5252 0.038,10.3167 -1.76088,15.72226 -2.64458,7.94698 -9.10054,15.61019 -16.16819,19.19165 -9.4872,4.80753 -14.35518,5.43636 -42.0845,5.43636 h -25.7899 v 19.5 19.5 h -7.50812 -7.50813 z m 67.61051,5.68824 c 7.47763,-1.60367 13.43263,-5.84448 16.2535,-11.57482 1.9938,-4.05022 2.39124,-6.36828 2.37695,-13.86342 -0.0204,-10.7004 -2.15724,-15.8028 -8.56065,-20.4414 -5.98053,-4.33227 -11.50436,-5.0586 -38.47141,-5.0586 h -24.45078 v 26 26 h 23.95078 c 13.17292,0 26.17864,-0.47779 28.90161,-1.06176 z m 113.40995,41.53002 c -7.50487,-3.15556 -7.73383,-9.63125 -1.25396,-35.46826 2.13805,-8.525 4.06381,-16.4 4.27949,-17.5 0.31354,-1.59924 0.54224,-1.39887 1.1413,1 0.41205,1.65 2.31817,9.28223 4.23582,16.9605 5.55651,22.24809 5.56173,31.6682 0.019,34.31514 -4.01035,1.91516 -5.2681,2.01861 -8.4217,0.69262 z m -45.33926,-26.39134 c -3.90053,-3.90052 -3.87481,-7.92336 0.0794,-12.427 3.51306,-4.00116 8.8958,-6.31034 25.99748,-11.15281 6.875,-1.94672 14.22937,-4.21806 16.34304,-5.04743 2.11368,-0.82937 3.68868,-1.15733 3.5,-0.72881 -1.01031,2.29465 -30.05972,29.15407 -33.08252,30.58848 -5.41248,2.56839 -9.4215,2.18352 -12.83744,-1.23243 z m 82.871,-0.32692 c -4.05031,-2.88802 -32.43488,-29.75 -31.43629,-29.75 0.21888,0 2.00052,0.66959 3.9592,1.48798 1.95867,0.81839 8.6343,2.86736 14.83473,4.55327 26.2344,7.13321 33.49496,12.49332 29.21799,21.57019 -2.89447,6.14283 -9.72408,7.02398 -16.57563,2.13856 z m -55.79408,-38.17118 c -19.04065,-5.63436 -24.69403,-8.10308 -27.90548,-12.18578 -4.92442,-6.26037 -0.42485,-14.72637 7.82686,-14.72637 1.61151,0 4.92856,1.3125 7.37122,2.91666 4.51351,2.96416 32.68768,29.51753 31.08348,29.29531 -0.48185,-0.0667 -8.75108,-2.45166 -18.37608,-5.29982 z m 35.75671,-5.96577 c 14.30231,-13.88849 18.4134,-17.28259 23.95448,-19.77676 3.85565,-1.73551 4.51302,-1.76944 7.78599,-0.40191 2.48822,1.03964 4.03364,2.59182 5.08438,5.10661 1.3795,3.30159 1.35486,3.92864 -0.28599,7.27599 -2.43822,4.97403 -8.92138,8.06555 -28.49112,13.58605 -8.63253,2.43519 -16.65624,4.73254 -17.83043,5.10522 -1.17421,0.37267 3.22801,-4.53016 9.78269,-10.8952 z m -18.52615,-8.46031 c -5.33838,-22.07249 -6.01787,-27.7296 -3.83716,-31.94662 3.1728,-6.13551 9.86247,-7.10409 14.82071,-2.14585 3.03194,3.03195 3.05513,3.13609 2.50409,11.25 -0.3059,4.50435 -2.16764,14.33854 -4.1372,21.85376 C 866.61146,374.51222 865,381.57316 865,382.68798 c 0,6.03819 -1.96315,1.03547 -5.76943,-14.70227 z M 0,315.03549 c 0,-1.01799 9.64895,-11.32295 22.25,-23.76274 66.358841,-65.50949 111.17465,-108.9715 112.619,-109.2169 0.89711,-0.15243 2.7583,0.74757 4.13599,2 1.37769,1.25242 11.05269,10.11905 21.5,19.70362 10.44731,9.58455 20.01628,18.33364 21.26438,19.44241 l 2.26928,2.01593 16.73072,-16.47067 c 48.61676,-47.86112 85.65104,-83.44502 87.09872,-83.68752 0.89755,-0.15035 14.68191,8.27881 30.63192,18.73147 l 29,19.00483 16.5,-16.77197 c 44.32682,-45.05746 99.01974,-101.09322 101.93813,-104.44097 1.91702,-2.19906 4.15676,-3.73691 5.41545,-3.71836 1.88284,0.0277 8.09715,4.87865 30.24759,23.61131 2.69436,2.27862 17.87717,14.96393 33.73957,28.18957 l 28.84076,24.04663 5.91824,-6.32663 c 9.01004,-9.63175 19.23922,-13.97876 32.90026,-13.98136 13.80324,-0.003 25.52156,5.28093 33.84173,15.25859 4.09518,4.91098 9.15827,14.07602 9.15827,16.57799 0,3.21804 2.32606,2.26739 14.66278,-5.99258 14.48609,-9.69907 14.73343,-9.8875 11.31618,-8.62104 -6.05138,2.24268 -6.79185,-1.85159 -0.7706,-4.26082 3.9148,-1.56639 4.29286,-1.56832 5.41937,-0.0277 1.09541,1.49806 1.71854,1.31434 6.52828,-1.92473 2.92451,-1.96947 5.67424,-3.58086 6.11052,-3.58086 0.43627,0 13.85151,8.55 29.81162,19 15.96012,10.45 29.42239,19 29.91615,19 0.49377,0 9.70425,-5.85 20.46773,-13 10.76348,-7.15 20.35027,-12.99439 21.30396,-12.98753 0.9537,0.007 4.209,2.37692 7.234,5.26681 3.025,2.88988 16.975,16.03152 31,29.20363 14.025,13.17211 28.875,27.14748 33,31.05638 16.73971,15.86277 26.92734,25.50302 35,33.11941 4.675,4.41077 28.4125,26.8039 52.75,49.76251 34.0304,32.10233 44.25,42.28771 44.25,44.10183 0,3.17583 -0.6135,3.39334 -7,2.48167 -3.025,-0.43183 -10.225,-1.32125 -16,-1.9765 -5.775,-0.65525 -15.67136,-1.84091 -21.9919,-2.63479 -13.53796,-1.70042 -18.25097,-1.19257 -27.0081,2.91023 -5.83149,2.73211 -7.53027,3.05308 -16.51751,3.12083 -9.37946,0.0707 -10.44298,-0.13384 -16.69736,-3.21124 -11.09146,-5.45743 -17.57395,-14.46606 -20.46661,-28.44215 -1.80614,-8.72645 -3.24997,-11.65655 -8.60839,-17.46975 -5.15059,-5.58773 -10.10213,-8.14867 -19.86025,-10.27173 -12.79161,-2.78305 -22.11938,-9.7207 -27.79314,-20.67151 -1.97107,-3.80432 -4.52955,-15.56602 -19.65123,-90.33969 -1.94444,-9.61487 -3.68277,-17.629 -3.86295,-17.80919 -0.18018,-0.18018 -8.81347,5.22428 -19.18508,12.00991 -10.37161,6.78562 -21.4142,13.5803 -24.53908,15.09927 -15.15701,7.36767 -21.5015,26.07538 -14.04809,41.42293 1.00395,2.06727 7.99134,14.61499 15.52753,27.88383 9.72651,17.1253 13.70216,25.05413 13.70216,27.32691 0,4.45869 -4.66665,9.04791 -9.20057,9.04791 -4.28529,0 -5.47138,-0.84672 -22.29943,-15.91902 -35.9586,-32.20685 -32.6492,-28.62704 -35.84407,-38.77291 -1.52548,-4.84443 -5.94204,-18.70806 -9.81458,-30.80806 -9.59785,-29.98912 -10.23553,-32.03129 -12.41666,-39.76428 -1.07094,-3.79696 -2.37961,-6.58326 -2.98322,-6.35163 -0.59143,0.22695 -12.57466,8.04351 -26.6294,17.37013 l -25.55407,16.9575 49.85428,42.37371 c 53.49663,45.46953 53.87211,45.8538 52.41158,53.63908 -0.84409,4.49936 -5.89979,10.00822 -10.4308,11.36574 -3.73323,1.11851 -8.65491,0.40254 -38.8009,-5.64444 -13.7188,-2.75185 -16.96047,-1.43359 -18.36786,7.46951 -1.48649,9.40348 -6.58471,14.07429 -15.36942,14.08093 -4.93416,0.004 -4.96639,-0.0179 -14.53954,-9.74626 -5.27694,-5.3625 -14.31736,-14.77964 -20.08984,-20.92698 -16.07668,-17.12068 -17.54798,-16.85689 -28.87536,5.17698 -5.79604,11.2744 -8.53526,15.55884 -11.02862,17.25 -6.49256,4.40368 -16.99977,2.10337 -20.35284,-4.45578 -1.24946,-2.44415 -4.09887,-11.1472 -11.88284,-36.29422 -1.1066,-3.575 -3.50728,-11.225 -5.33484,-17 -1.82756,-5.77499 -3.98813,-12.74999 -4.80127,-15.49999 -0.81313,-2.75 -5.15872,-16.7 -9.65687,-31 -4.49815,-14.3 -8.99966,-28.7 -10.00336,-32 -1.0037,-3.3 -3.02398,-9.825 -4.4895,-14.5 -1.46552,-4.675 -3.4858,-11.2 -4.4895,-14.5 -7.70654,-25.3378 -18.22467,-58.11417 -18.8498,-58.7393 -0.41806,-0.41806 -6.58278,5.20226 -13.69939,12.4896 -14.16112,14.50086 -47.36508,48.42956 -82.46964,84.26972 -13.63596,13.9217 -31.88249,34.11557 -46.28968,51.2299 -26.46758,31.44088 -27.86743,32.6387 -38.20199,32.68875 -7.85281,0.038 -13.78556,-3.15258 -18.25,-9.81479 -4.74789,-7.0852 -4.448,-10.97449 3.68136,-47.74379 3.81225,-17.24289 6.76044,-31.52162 6.55154,-31.73053 -0.20891,-0.2089 -9.51014,8.55949 -20.66931,19.48531 -11.15926,10.92582 -27.94495,27.31775 -37.30153,36.4265 -37.12384,36.14055 -39.67701,38.89591 -53.22363,57.43862 -7.23258,9.9 -14.41873,19.21363 -15.96924,20.69695 -10.85903,10.38855 -29.94752,5.96058 -35.33612,-8.19695 -3.285,-8.6307 -8.0763,-12.2145 -16.24542,-12.15122 -4.057408,0.0314 -6.049308,0.73834 -10.616038,3.76753 C 87.449902,259.5481 36.19505,295.09664 11.80737,312.15241 4.75768,317.08269 0,318.2444 0,315.03549 Z m 93.500101,-66.4143 c 11.627049,-5.82355 23.912029,-0.77067 30.216839,12.42833 1.66005,3.4753 3.72074,6.90172 4.57929,7.61425 1.38286,1.14767 1.56101,0.6608 1.56101,-4.26602 0,-6.64442 2.24752,-14.84816 6.22827,-22.73398 1.60303,-3.17557 2.91459,-6.62403 2.91459,-7.66323 0,-1.03921 -1.17122,-5.43954 -2.60271,-9.77852 -1.96395,-5.95293 -2.76157,-10.92339 -3.25,-20.25293 l -0.64729,-12.3639 -30,29.35117 C 86.000101,237.0995 63.275101,259.45068 52,270.62563 L 31.5,290.94374 61,270.53376 C 77.225101,259.30827 91.850101,249.44762 93.500101,248.62119 Z M 640.78081,127.99514 c -3.13499,-11.37319 -10.79557,-20.42651 -21.52394,-25.43709 -6.15024,-2.872431 -7.65464,-3.157711 -16.75686,-3.177641 -9.24123,-0.0202 -10.49879,0.22123 -16.57367,3.182261 -4.20577,2.04999 -8.48761,5.22787 -11.88711,8.82234 -6.33634,6.69975 -8.53548,3.51951 17.45799,25.24639 l 18.99721,15.87899 15.64792,-10.42655 15.64793,-10.42655 z m -16.75315,5.37116 c -1.62068,-1.9528 -0.77409,-9.21545 1.3181,-11.30765 3.70703,-3.70702 6.86148,2.31548 4.48427,8.5614 -1.54957,4.07135 -3.8134,5.14282 -5.80237,2.74625 z M 582.2,127.63298 c -1.46011,-1.46011 -1.56137,-6.71934 -0.19839,-10.30424 0.74026,-1.94703 1.58829,-2.55111 3.25,-2.3151 1.87661,0.26654 2.2999,1.0356 2.55988,4.65102 0.19659,2.73385 -0.273,5.22373 -1.27305,6.75 -1.78233,2.72017 -2.60543,2.95132 -4.33844,1.21832 z M 246.0001,281.30822 c 0,-1.77294 -0.74445,-2.80779 -2.5,-3.47525 -1.375,-0.52277 -2.5,-1.42277 -2.5,-2 0,-0.57723 1.125,-1.47723 2.5,-2 1.75555,-0.66746 2.5,-1.70231 2.5,-3.47525 0,-2.8326 2.06134,-3.36069 4,-1.02475 0.68469,0.825 2.53979,1.5 4.12244,1.5 3.27441,0 3.28277,0.0165 1.73054,3.42333 -0.87905,1.92931 -0.85894,2.86456 0.0861,4.00325 1.70273,2.05167 0.3162,3.8543 -2.43374,3.16411 -1.39441,-0.34997 -2.75574,0.006 -3.51335,0.91898 -1.93155,2.32736 -3.99199,1.79345 -3.99199,-1.03442 z M 22.38404,237.39138 c -1.02711,-2.67662 0.10359,-5.05376 2.57015,-5.40338 3.14422,-0.44567 5.37766,2.35639 3.97188,4.98311 -1.18141,2.20749 -5.74374,2.50058 -6.54203,0.42027 z m 155.53654,-54.84191 c -14.73189,-6.21709 -22.15134,-17.33498 -22.19632,-33.26073 -0.0198,-6.99585 0.39008,-8.90919 3.1447,-14.68098 5.21036,-10.91733 16.14291,-18.77405 27.25355,-19.58588 7.04825,-0.51501 8.30602,1.04172 3.02036,3.73827 -11.15585,5.69128 -16.75537,20.049 -12.58849,32.2781 5.84367,17.15024 27.36091,23.34056 42.2016,12.14103 4.60402,-3.47443 5.68062,-2.1412 2.82367,3.49672 -2.96552,5.85217 -9.81343,12.29091 -16.23177,15.26189 -7.42912,3.43887 -20.0604,3.72052 -27.4273,0.61158 z m -98.189988,-0.38649 c -1.74695,-0.91957 -2.4854,-1.89576 -2,-2.64392 0.42323,-0.65234 0.76951,-2.08608 0.76951,-3.18608 0,-1.38269 0.56304,-1.90405 1.82419,-1.68913 1.0033,0.17098 2.42574,-0.18837 3.16097,-0.79855 1.48143,-1.22948 3.07754,0.2682 2.05282,1.92622 -0.31902,0.5162 0.1943,1.37188 1.14072,1.90153 1.57354,0.8806 1.51117,1.18383 -0.72897,3.54418 -2.78217,2.93148 -2.52204,2.89192 -6.21924,0.94575 z M 770.25001,176.1892 c -1.76711,-0.7392 -1.55304,-4.85983 0.33381,-6.42579 2.28054,-1.89268 4.91619,0.0795 4.91619,3.67856 0,2.90801 -2.16161,4.03913 -5.25,2.74723 z M 933.655,161.00424 c -2.40354,-2.65587 -2.03747,-5.87454 0.88597,-7.79006 5.03929,-3.30187 10.33525,2.1064 7.01892,7.16776 -1.91601,2.9242 -5.56195,3.21122 -7.90489,0.6223 z m 5.34501,-3.67126 c 0,-0.825 -0.675,-1.5 -1.5,-1.5 -0.82501,0 -1.5,0.675 -1.5,1.5 0,0.825 0.67499,1.5 1.5,1.5 0.825,0 1.5,-0.675 1.5,-1.5 z m -498,-1.5 c -0.62593,-1.16955 -2.09383,-2 -3.53519,-2 -2.51137,0 -3.42656,-2.28758 -1.41304,-3.532 0.57848,-0.35752 0.91598,-2.07158 0.75,-3.80902 -0.28611,-2.99491 -0.13771,-3.14331 2.8572,-2.8572 1.73744,0.16598 3.4515,-0.17152 3.80902,-0.75 1.32266,-2.14011 3.532,-1.07192 3.532,1.70767 0,1.67645 0.78494,3.24966 2,4.00848 2.66385,1.6636 2.52565,3.06203 -0.37453,3.78994 -1.30599,0.32778 -2.87135,1.68635 -3.47856,3.01905 -1.34243,2.94631 -2.72124,3.08698 -4.1469,0.42308 z m 205.3229,-37.60092 c -0.71793,-1.87087 1.23302,-3.36203 4.4271,-3.38377 3.108,-0.0211 2.88693,2.79203 -0.31511,4.00944 -3.3288,1.26561 -3.38981,1.25633 -4.11199,-0.62567 z m 9.34376,-3.06575 c -1.36831,-1.36831 -0.56952,-2.47597 2.80122,-3.88436 4.42099,-1.8472 6.53212,-1.83901 6.53212,0.0254 0,2.51571 -7.55352,5.63883 -9.33333,3.85901 z m -15.33083,-7.90055 c -0.72433,-1.88754 -1.43578,-1.23586 12.39667,-11.35516 10.52583,-7.70029 13.2675,-8.86293 13.2675,-5.62625 0,1.184 -22.87919,18.54863 -24.43921,18.54863 -0.34297,0 -0.89419,-0.70525 -1.22496,-1.56722 z m -78.38417,-2.27083 c -2.27058,-1.83861 -2.01806,-4.16195 0.45236,-4.16195 1.83884,0 4.91569,3.67368 4.13491,4.93699 -0.93138,1.507 -1.98993,1.32816 -4.58727,-0.77504 z m -318.2849,-4.82862 c -0.36667,-0.366661 -0.66667,-1.49166 -0.66667,-2.5 0,-1.14808 -0.72548,-1.83333 -1.94098,-1.83333 -2.98824,0 -3.68973,-2.16927 -1.22971,-3.80266 1.19388,-0.79271 2.17069,-2.48484 2.17069,-3.7603 0,-3.05313 1.7121,-4.00449 3.81301,-2.11876 1.0728,0.96292 2.72812,1.31259 4.54665,0.96042 2.76441,-0.53533 2.83641,-0.4479 2.16155,2.62472 -0.43102,1.96241 -0.24874,3.71996 0.47643,4.59373 1.58989,1.9157 0.41724,3.50285 -2.58804,3.50285 -1.3598,0 -2.73139,0.675 -3.04797,1.499999 -0.59714,1.556111 -2.53511,1.993191 -3.69496,0.833331 z m 309.43071,-2.20895 c -3.20873,-2.66111 -3.58915,-5.13109 -0.78846,-5.11941 2.39583,0.01 7.04816,4.62185 6.39071,6.335129 -0.86155,2.245201 -1.63024,2.078401 -5.60225,-1.215719 z m 78.24985,0.33837 c -0.66803,-1.74086 2.26687,-5.46275 4.30766,-5.46275 1.95609,0 1.64686,3.41685 -0.48373,5.34501 -2.27033,2.05463 -3.07121,2.07929 -3.82393,0.11774 z M 564.01411,85.68771 c -8.53138,-11.57387 -9.60864,-13.85473 -6.54365,-13.85473 1.8128,0 18.52954,22.28082 18.52954,24.697 0,3.65165 -3.90768,0.11682 -11.98589,-10.84227 z M 543.25,89.96951 c -3.46109,-2.96288 -4.05598,-4.61327 -1.95366,-5.42 2.04228,-0.7837 8.14403,4.69351 7.3971,6.63997 -0.85026,2.21575 -1.63563,2.03974 -5.44344,-1.21997 z m 77.30583,1.95381 c -0.60006,-0.97093 0.73566,-4.31112 7.43419,-18.59034 2.3221,-4.95 5.27454,-11.3625 6.56096,-14.25 1.28643,-2.8875 2.96373,-5.25 3.72732,-5.25 3.4134,0 3.42876,-0.0465 -8.50977,25.75 -5.60618,12.11371 -7.6559,14.85929 -9.2127,12.34034 z m -37.52065,-2.0246 c -1.47528,-2.7566 -1.27944,-5.06574 0.42964,-5.06574 1.60595,0 3.53519,2.9656 3.53519,5.43426 0,2.20418 -2.72343,1.95105 -3.96483,-0.36852 z m 54.43811,0.89104 c -0.82609,-1.33664 4.18145,-7.95678 6.01858,-7.95678 2.7138,0 2.51061,1.92758 -0.57345,5.44013 -3.27823,3.73371 -4.37863,4.24229 -5.44513,2.51665 z m -41.9235,-3.20678 c -0.57297,-1.84862 -2.54978,-18.95733 -2.54978,-22.06772 0,-1.95303 0.50817,-2.68228 1.86916,-2.68228 1.59875,0 2.03278,1.27572 3,8.81772 1.60312,12.50044 1.49397,17.18228 -0.40054,17.18228 -0.84227,0 -1.70574,-0.5625 -1.91884,-1.25 z m 12.97863,0.29599 c -0.94614,-1.53091 0.56309,-6.04599 2.02097,-6.04599 1.94349,0 2.59925,1.55958 1.8728,4.45401 -0.63629,2.53518 -2.77134,3.4081 -3.89377,1.59198 z M 578.5903,78.76706 c -1.68425,-4.20937 -1.43379,-5.93408 0.86176,-5.93408 1.54593,0 4.54363,6.84765 3.82151,8.72947 -0.95251,2.48219 -3.07961,1.21254 -4.68327,-2.79539 z m 66.88299,2.0227 c -0.82609,-1.33664 4.18145,-7.95678 6.01858,-7.95678 2.51245,0 2.4527,1.60166 -0.19876,5.32818 -2.61782,3.67924 -4.61343,4.58059 -5.81982,2.6286 z m -35.13805,-2.02154 c -0.69728,-0.69728 -0.80181,-2.36652 -0.29024,-4.63477 1.68272,-7.46093 5.45972,-6.86791 4.17536,0.65557 -0.77897,4.56302 -2.02505,5.83927 -3.88512,3.9792 z m 105.36601,-4.56734 c -1.2932,-1.29319 -0.71803,-4.14748 0.96597,-4.79369 2.10762,-0.80877 3.62704,0.65929 3.16508,3.05809 -0.36719,1.90665 -2.89711,2.96956 -4.13105,1.7356 z m -61.33246,-3.84926 c -0.68105,-1.77479 3.24586,-7.51864 5.1403,-7.51864 2.52226,0 2.64625,1.99492 0.30721,4.94336 -2.85327,3.59669 -4.7174,4.47793 -5.44751,2.57528 z m -79.84311,-2.46898 c -0.83911,-1.62269 -1.52567,-3.87269 -1.52567,-5 0,-3.36333 2.97547,-2.35258 4.61321,1.56707 2.51035,6.0081 -0.19841,9.01987 -3.08754,3.43293 z m 309.04575,-1.62109 c -3.18546,-3.18545 -1.0752,-8.42857 3.39233,-8.42857 5.34181,0 7.87559,5.02543 4.2075,8.34501 -2.3047,2.08572 -5.56186,2.12153 -7.59983,0.0836 z m 4.92858,-4.42857 c -0.48383,-0.78284 -1.05908,-0.84093 -1.72574,-0.17426 -0.55,0.55 -0.67341,1.52841 -0.27426,2.17426 0.48382,0.78284 1.05907,0.84093 1.72573,0.17426 0.55,-0.55 0.67341,-1.52841 0.27427,-2.17426 z m -275.8125,4.35417 c -1.14341,-1.14341 -0.77144,-6.85959 0.5625,-8.64438 2.27985,-3.0504 4.03842,-0.57311 3.06988,4.32451 -0.81992,4.14603 -2.18398,5.76827 -3.63238,4.31987 z m 49.80696,-5.36312 c -0.9388,-1.51901 0.36548,-4.72333 2.21081,-5.43145 2.70949,-1.03973 3.64309,0.97909 1.77281,3.8335 -1.81663,2.77253 -2.97141,3.23575 -3.98362,1.59795 z M 411.70186,58.68601 c -0.92253,-0.51628 -2.16483,-1.84959 -2.76067,-2.96291 -2.41927,-4.52045 5.16014,-9.38879 8.85881,-5.69012 3.87858,3.87858 -1.35631,11.30669 -6.09814,8.65303 z M 415,53.77396 c 0,-0.51754 -0.675,-0.94098 -1.5,-0.94098 -1.54641,0 -1.9867,1.17996 -0.86052,2.30615 C 413.43841,55.93806 415,55.03494 415,53.77396 Z m 154.51343,1.4369 c -1.99194,-4.7674 -1.90949,-6.37788 0.32651,-6.37788 1.25152,0 2.25088,1.24514 3.1249,3.89342 2.13505,6.46929 -0.87971,8.63943 -3.45141,2.48446 z m 44.48658,-5.11343 c 0,-2.1352 0.58618,-4.68383 1.3026,-5.66362 2.133,-2.91704 3.92358,0.16014 2.91575,5.01083 -1.14891,5.52975 -4.21835,6.00475 -4.21835,0.65279 z m -48.4099,-5.43928 c -1.96918,-2.81138 -2.02089,-4.44589 -0.16322,-5.15874 2.59469,-0.99567 5.29399,4.49041 3.10377,6.30813 -1.04107,0.86402 -1.71475,0.60069 -2.94055,-1.14939 z M 576.54317,6.4882039 c -2.65471,-1.94118 -1.66516,-6.08293 1.54244,-6.45579 2.8931,-0.3363 5.43381,2.00461 4.58276,4.22241 -0.95443,2.4872 -4.17309,3.66079 -6.1252,2.23338 z"
     id="path1" />
</svg>
